<svg data-v-423bf9ae="" xmlns="http://www.w3.org/2000/svg" viewBox="0 0 343 90" class="iconLeft"><!----><!----><!----><g data-v-423bf9ae="" id="8c932aa8-0073-418d-b3a4-5c0a59ad58b2" fill="#000000" transform="matrix(4.457652290486928,0,0,4.457652290486928,106.87964623761955,5.282317947576686)"><path d="M5.85 5.03L5.85 5.03Q4.33 5.03 3.65 5.87Q2.97 6.72 2.97 8.19L2.97 8.19Q2.97 8.90 3.14 9.48Q3.30 10.07 3.64 10.49Q3.98 10.91 4.48 11.14Q4.98 11.37 5.66 11.37L5.66 11.37Q6.02 11.37 6.28 11.35Q6.54 11.34 6.73 11.30L6.73 11.30L6.73 7.92L8.92 7.92L8.92 12.73Q8.53 12.88 7.66 13.05Q6.79 13.23 5.52 13.23L5.52 13.23Q4.42 13.23 3.54 12.89Q2.65 12.56 2.02 11.91Q1.39 11.27 1.04 10.33Q0.70 9.39 0.70 8.19L0.70 8.19Q0.70 6.97 1.08 6.03Q1.46 5.10 2.11 4.45Q2.77 3.79 3.66 3.46Q4.55 3.12 5.56 3.12L5.56 3.12Q6.24 3.12 6.80 3.21Q7.35 3.30 7.75 3.42Q8.15 3.54 8.41 3.67Q8.67 3.79 8.78 3.86L8.78 3.86L8.15 5.61Q7.70 5.38 7.12 5.20Q6.54 5.03 5.85 5.03ZM15.60 5.81L15.25 7.53Q14.97 7.46 14.59 7.38Q14.21 7.31 13.78 7.31L13.78 7.31Q13.58 7.31 13.31 7.34Q13.03 7.38 12.89 7.42L12.89 7.42L12.89 13.05L10.81 13.05L10.81 6.08Q11.37 5.88 12.13 5.71Q12.89 5.53 13.83 5.53L13.83 5.53Q14 5.53 14.24 5.55Q14.48 5.57 14.71 5.61Q14.95 5.64 15.19 5.69Q15.43 5.74 15.60 5.81L15.60 5.81ZM19.39 11.59L19.39 11.59Q19.70 11.59 19.98 11.58Q20.26 11.56 20.43 11.54L20.43 11.54L20.43 9.95Q20.30 9.93 20.05 9.90Q19.80 9.87 19.59 9.87L19.59 9.87Q19.29 9.87 19.03 9.90Q18.77 9.94 18.58 10.04Q18.38 10.14 18.27 10.30Q18.16 10.47 18.16 10.72L18.16 10.72Q18.16 11.21 18.49 11.40Q18.82 11.59 19.39 11.59ZM19.22 5.49L19.22 5.49Q20.15 5.49 20.76 5.70Q21.38 5.91 21.75 6.30Q22.12 6.69 22.27 7.25Q22.43 7.81 22.43 8.50L22.43 8.50L22.43 12.84Q21.98 12.94 21.18 13.07Q20.38 13.20 19.25 13.20L19.25 13.20Q18.54 13.20 17.95 13.08Q17.37 12.95 16.95 12.66Q16.53 12.38 16.31 11.91Q16.09 11.45 16.09 10.78L16.09 10.78Q16.09 10.14 16.34 9.69Q16.60 9.24 17.04 8.97Q17.47 8.71 18.03 8.59Q18.59 8.47 19.19 8.47L19.19 8.47Q19.60 8.47 19.91 8.50Q20.23 8.54 20.43 8.60L20.43 8.60L20.43 8.40Q20.43 7.87 20.10 7.55Q19.78 7.22 18.98 7.22L18.98 7.22Q18.45 7.22 17.93 7.30Q17.42 7.38 17.04 7.52L17.04 7.52L16.77 5.84Q16.95 5.78 17.23 5.72Q17.50 5.66 17.82 5.61Q18.14 5.56 18.50 5.52Q18.86 5.49 19.22 5.49ZM29.04 9.42L29.04 9.42Q29.04 8.46 28.60 7.88Q28.17 7.29 27.31 7.29L27.31 7.29Q27.03 7.29 26.80 7.31Q26.56 7.34 26.40 7.36L26.40 7.36L26.40 11.13Q26.60 11.26 26.91 11.34Q27.23 11.42 27.55 11.42L27.55 11.42Q29.04 11.42 29.04 9.42ZM31.16 9.37L31.16 9.37Q31.16 10.22 30.95 10.92Q30.74 11.62 30.34 12.12Q29.93 12.63 29.33 12.91Q28.73 13.19 27.94 13.19L27.94 13.19Q27.51 13.19 27.13 13.10Q26.75 13.02 26.40 12.87L26.40 12.87L26.40 15.64L24.32 15.64L24.32 5.94Q24.60 5.85 24.96 5.77Q25.33 5.70 25.73 5.64Q26.12 5.59 26.54 5.55Q26.95 5.52 27.33 5.52L27.33 5.52Q28.24 5.52 28.95 5.79Q29.67 6.06 30.16 6.56Q30.65 7.06 30.91 7.77Q31.16 8.48 31.16 9.37ZM34.86 13.05L32.77 13.05L32.77 2.52L34.86 2.18L34.86 5.71Q35.07 5.64 35.40 5.58Q35.73 5.52 36.04 5.52L36.04 5.52Q36.93 5.52 37.53 5.76Q38.12 6.01 38.48 6.45Q38.84 6.90 38.98 7.52Q39.13 8.13 39.13 8.89L39.13 8.89L39.13 13.05L37.04 13.05L37.04 9.14Q37.04 8.13 36.79 7.71Q36.53 7.29 35.83 7.29L35.83 7.29Q35.55 7.29 35.30 7.34Q35.06 7.39 34.86 7.45L34.86 7.45L34.86 13.05ZM41.16 13.05L41.16 3.35L43.34 3.35L43.34 13.05L41.16 13.05ZM44.74 3.35L52.78 3.35L52.78 5.21L49.85 5.21L49.85 13.05L47.67 13.05L47.67 5.21L44.74 5.21L44.74 3.35Z"></path></g><defs data-v-423bf9ae=""><linearGradient data-v-423bf9ae="" gradientTransform="rotate(25)" id="ea03b4f0-dbc0-4048-bad0-ef61c6c15509" x1="0%" y1="0%" x2="100%" y2="0%"><stop data-v-423bf9ae="" offset="0%" style="stop-color: rgb(0, 21, 214); stop-opacity: 1;"></stop><stop data-v-423bf9ae="" offset="100%" style="stop-color: rgb(9, 137, 251); stop-opacity: 1;"></stop></linearGradient></defs><g data-v-423bf9ae="" id="97f05c30-0801-4485-9bb6-551969fb6a31" transform="matrix(2.8125,0,0,2.8125,0,0)" stroke="none" fill="url(#ea03b4f0-dbc0-4048-bad0-ef61c6c15509)"><path d="M9.382 8.675h13.943v13.943L32 31.293V0H.707zM22.618 23.325H8.675V9.382L0 .707V32h31.293z"></path></g><!----></svg>